<svg xmlns="http://www.w3.org/2000/svg" viewBox="0 0 512 512" width="100%" height="100%">
  <rect width="512" height="512" rx="128" fill="#B55B73"/>
  <circle cx="256" cy="256" r="210" fill="#FDE8EF" opacity="0.25"/>
  <!-- Tulip petals and floral silhouette -->
  <g transform="translate(136, 120) scale(0.95)" fill="none" stroke="#FFFFFF" stroke-width="18" stroke-linecap="round" stroke-linejoin="round">
    <!-- Tulip Central & Outer Petals -->
    <path d="M125 180 C80 130 50 70 85 20 C100 40 120 70 125 110 C130 70 150 40 165 20 C200 70 170 130 125 180 Z" fill="#FFFFFF"/>
    <path d="M85 70 C40 85 20 135 60 180 C85 175 110 160 125 140" fill="none" stroke="#FCEBF0" stroke-width="12"/>
    <path d="M165 70 C210 85 230 135 190 180 C165 175 140 160 125 140" fill="none" stroke="#FCEBF0" stroke-width="12"/>
    <!-- Stem and delicate leaves -->
    <path d="M125 180 Q125 240 125 280" stroke="#FFFFFF" stroke-width="16"/>
    <path d="M125 240 Q70 230 55 195 Q90 195 125 220" fill="#FFFFFF" opacity="0.9"/>
    <path d="M125 250 Q180 240 195 205 Q160 205 125 230" fill="#FFFFFF" opacity="0.9"/>
  </g>
</svg>
